solid OpenSCAD_Model
  facet normal -1 0 0
    outer loop
      vertex -10 0 0
      vertex -10 0 1.5
      vertex -10 10 0
    endloop
  endfacet
  facet normal -1 0 0
    outer loop
      vertex -10 10 0
      vertex -10 0 1.5
      vertex -10 10 1.5
    endloop
  endfacet
  facet normal 0 -1 0
    outer loop
      vertex -10 0 1.5
      vertex -10 0 0
      vertex -7.5 0 0
    endloop
  endfacet
  facet normal 0 -1 0
    outer loop
      vertex -7.5 0 1.5
      vertex -10 0 1.5
      vertex -7.5 0 0
    endloop
  endfacet
  facet normal 0 0 -1
    outer loop
      vertex -10 0 0
      vertex -10 10 0
      vertex -7.5 0 0
    endloop
  endfacet
  facet normal 0 0 -1
    outer loop
      vertex -7.5 0 0
      vertex -10 10 0
      vertex 10 10 0
    endloop
  endfacet
  facet normal 0 0 -1
    outer loop
      vertex 7.5 0 0
      vertex 10 10 0
      vertex 10 0 0
    endloop
  endfacet
  facet normal 0 0 -1
    outer loop
      vertex -0.231763 0.713292 0
      vertex -7.5 0 0
      vertex -0.140536 0.736715 0
    endloop
  endfacet
  facet normal 0 0 -1
    outer loop
      vertex -0.606763 -0.440839 0
      vertex -7.5 0 0
      vertex -0.65723 -0.361315 0
    endloop
  endfacet
  facet normal 0 0 -1
    outer loop
      vertex -7.44086 -0.939999 0
      vertex 4.78068 -5.77885 0
      vertex 4.0187 -6.33246 0
    endloop
  endfacet
  facet normal 0 0 -1
    outer loop
      vertex -7.44086 -0.939999 0
      vertex 4.0187 -6.33246 0
      vertex 3.19334 -6.7862 0
    endloop
  endfacet
  facet normal 0 0 -1
    outer loop
      vertex -7.44086 -0.939999 0
      vertex 3.19334 -6.7862 0
      vertex 2.31763 -7.13292 0
    endloop
  endfacet
  facet normal 0 0 -1
    outer loop
      vertex -7.26437 -1.86517 0
      vertex 0.470929 -7.4852 0
      vertex -0.470929 -7.4852 0
    endloop
  endfacet
  facet normal 0 0 -1
    outer loop
      vertex -7.26437 -1.86517 0
      vertex -0.470929 -7.4852 0
      vertex -1.40536 -7.36715 0
    endloop
  endfacet
  facet normal 0 0 -1
    outer loop
      vertex -6.97332 -2.76093 0
      vertex -2.31763 -7.13292 0
      vertex -3.19334 -6.7862 0
    endloop
  endfacet
  facet normal 0 0 -1
    outer loop
      vertex -6.97332 -2.76093 0
      vertex -3.19334 -6.7862 0
      vertex -6.5723 -3.61315 0
    endloop
  endfacet
  facet normal 0 0 -1
    outer loop
      vertex -4.78068 -5.77885 0
      vertex -5.46726 -5.1341 0
      vertex -6.06763 -4.40839 0
    endloop
  endfacet
  facet normal 0 0 -1
    outer loop
      vertex -3.19334 -6.7862 0
      vertex -4.0187 -6.33246 0
      vertex -6.5723 -3.61315 0
    endloop
  endfacet
  facet normal 0 0 -1
    outer loop
      vertex -7.26437 -1.86517 0
      vertex -1.40536 -7.36715 0
      vertex -6.97332 -2.76093 0
    endloop
  endfacet
  facet normal 0 0 -1
    outer loop
      vertex -1.40536 -7.36715 0
      vertex -2.31763 -7.13292 0
      vertex -6.97332 -2.76093 0
    endloop
  endfacet
  facet normal 0 0 -1
    outer loop
      vertex -7.44086 -0.939999 0
      vertex 2.31763 -7.13292 0
      vertex 1.40536 -7.36715 0
    endloop
  endfacet
  facet normal 0 0 -1
    outer loop
      vertex 1.40536 -7.36715 0
      vertex 0.470929 -7.4852 0
      vertex -7.26437 -1.86517 0
    endloop
  endfacet
  facet normal 0 0 -1
    outer loop
      vertex 5.46726 -5.1341 0
      vertex 4.78068 -5.77885 0
      vertex -7.44086 -0.939999 0
    endloop
  endfacet
  facet normal 0 0 -1
    outer loop
      vertex 0.047093 0.74852 0
      vertex 10 10 0
      vertex 0.140536 0.736715 0
    endloop
  endfacet
  facet normal 0 0 -1
    outer loop
      vertex 0.744086 -0.094 0
      vertex 7.44086 -0.939999 0
      vertex 0.726437 -0.186517 0
    endloop
  endfacet
  facet normal 0 0 -1
    outer loop
      vertex -0.75 0 0
      vertex -0.744086 -0.094 0
      vertex -7.5 0 0
    endloop
  endfacet
  facet normal 0 0 -1
    outer loop
      vertex 0.726437 -0.186517 0
      vertex 7.44086 -0.939999 0
      vertex 0.697332 -0.276093 0
    endloop
  endfacet
  facet normal 0 0 -1
    outer loop
      vertex -0.744086 -0.094 0
      vertex -0.726437 -0.186517 0
      vertex -7.5 0 0
    endloop
  endfacet
  facet normal 0 0 -1
    outer loop
      vertex 0.697332 -0.276093 0
      vertex 7.44086 -0.939999 0
      vertex 0.65723 -0.361315 0
    endloop
  endfacet
  facet normal 0 0 -1
    outer loop
      vertex -0.726437 -0.186517 0
      vertex -0.697332 -0.276093 0
      vertex -7.5 0 0
    endloop
  endfacet
  facet normal 0 0 -1
    outer loop
      vertex 0.65723 -0.361315 0
      vertex 7.44086 -0.939999 0
      vertex 0.606763 -0.440839 0
    endloop
  endfacet
  facet normal 0 0 -1
    outer loop
      vertex -0.697332 -0.276093 0
      vertex -0.65723 -0.361315 0
      vertex -7.5 0 0
    endloop
  endfacet
  facet normal 0 0 -1
    outer loop
      vertex 0.047093 -0.74852 0
      vertex 7.26437 -1.86517 0
      vertex -0.047093 -0.74852 0
    endloop
  endfacet
  facet normal 0 0 -1
    outer loop
      vertex -6.5723 -3.61315 0
      vertex -4.0187 -6.33246 0
      vertex -4.78068 -5.77885 0
    endloop
  endfacet
  facet normal 0 0 -1
    outer loop
      vertex 0.546726 -0.51341 0
      vertex 7.44086 -0.939999 0
      vertex 0.478068 -0.577885 0
    endloop
  endfacet
  facet normal 0 0 -1
    outer loop
      vertex 0.40187 -0.633246 0
      vertex 7.26437 -1.86517 0
      vertex 0.319334 -0.67862 0
    endloop
  endfacet
  facet normal 0 0 -1
    outer loop
      vertex -7.44086 -0.939999 0
      vertex 1.40536 -7.36715 0
      vertex -7.26437 -1.86517 0
    endloop
  endfacet
  facet normal 0 0 -1
    outer loop
      vertex 0.319334 -0.67862 0
      vertex 7.26437 -1.86517 0
      vertex 0.231763 -0.713292 0
    endloop
  endfacet
  facet normal 0 0 -1
    outer loop
      vertex 0.231763 -0.713292 0
      vertex 7.26437 -1.86517 0
      vertex 0.140536 -0.736715 0
    endloop
  endfacet
  facet normal 0 0 -1
    outer loop
      vertex 0.140536 -0.736715 0
      vertex 7.26437 -1.86517 0
      vertex 0.047093 -0.74852 0
    endloop
  endfacet
  facet normal 0 0 -1
    outer loop
      vertex -0.047093 -0.74852 0
      vertex 7.26437 -1.86517 0
      vertex -0.140536 -0.736715 0
    endloop
  endfacet
  facet normal 0 0 -1
    outer loop
      vertex 7.44086 -0.939999 0
      vertex 7.26437 -1.86517 0
      vertex 0.40187 -0.633246 0
    endloop
  endfacet
  facet normal 0 0 -1
    outer loop
      vertex 7.44086 -0.939999 0
      vertex 0.40187 -0.633246 0
      vertex 0.478068 -0.577885 0
    endloop
  endfacet
  facet normal 0 0 -1
    outer loop
      vertex -6.5723 -3.61315 0
      vertex -4.78068 -5.77885 0
      vertex -6.06763 -4.40839 0
    endloop
  endfacet
  facet normal 0 0 -1
    outer loop
      vertex 7.5 0 0
      vertex 7.44086 -0.939999 0
      vertex 0.744086 -0.094 0
    endloop
  endfacet
  facet normal 0 0 -1
    outer loop
      vertex 7.5 0 0
      vertex 0.744086 -0.094 0
      vertex 0.75 0 0
    endloop
  endfacet
  facet normal 0 0 -1
    outer loop
      vertex 7.5 0 0
      vertex 0.75 0 0
      vertex 10 10 0
    endloop
  endfacet
  facet normal 0 0 -1
    outer loop
      vertex 0.75 0 0
      vertex 0.744086 0.094 0
      vertex 10 10 0
    endloop
  endfacet
  facet normal 0 0 -1
    outer loop
      vertex 0.744086 0.094 0
      vertex 0.726437 0.186517 0
      vertex 10 10 0
    endloop
  endfacet
  facet normal 0 0 -1
    outer loop
      vertex 0.726437 0.186517 0
      vertex 0.697332 0.276093 0
      vertex 10 10 0
    endloop
  endfacet
  facet normal 0 0 -1
    outer loop
      vertex 0.697332 0.276093 0
      vertex 0.65723 0.361315 0
      vertex 10 10 0
    endloop
  endfacet
  facet normal 0 0 -1
    outer loop
      vertex 0.65723 0.361315 0
      vertex 0.606763 0.440839 0
      vertex 10 10 0
    endloop
  endfacet
  facet normal 0 0 -1
    outer loop
      vertex 0.606763 0.440839 0
      vertex 0.546726 0.51341 0
      vertex 10 10 0
    endloop
  endfacet
  facet normal 0 0 -1
    outer loop
      vertex 0.546726 0.51341 0
      vertex 0.478068 0.577885 0
      vertex 10 10 0
    endloop
  endfacet
  facet normal 0 0 -1
    outer loop
      vertex 0.478068 0.577885 0
      vertex 0.40187 0.633246 0
      vertex 10 10 0
    endloop
  endfacet
  facet normal 0 0 -1
    outer loop
      vertex 0.40187 0.633246 0
      vertex 0.319334 0.67862 0
      vertex 10 10 0
    endloop
  endfacet
  facet normal 0 0 -1
    outer loop
      vertex 0.319334 0.67862 0
      vertex 0.231763 0.713292 0
      vertex 10 10 0
    endloop
  endfacet
  facet normal 0 0 -1
    outer loop
      vertex 0.231763 0.713292 0
      vertex 0.140536 0.736715 0
      vertex 10 10 0
    endloop
  endfacet
  facet normal 0 0 -1
    outer loop
      vertex -0.047093 0.74852 0
      vertex 10 10 0
      vertex 0.047093 0.74852 0
    endloop
  endfacet
  facet normal 0 0 -1
    outer loop
      vertex -7.5 0 0
      vertex 10 10 0
      vertex -0.047093 0.74852 0
    endloop
  endfacet
  facet normal 0 0 -1
    outer loop
      vertex -7.5 0 0
      vertex -0.047093 0.74852 0
      vertex -0.140536 0.736715 0
    endloop
  endfacet
  facet normal 0 0 -1
    outer loop
      vertex -7.5 0 0
      vertex -0.231763 0.713292 0
      vertex -0.319334 0.67862 0
    endloop
  endfacet
  facet normal 0 0 -1
    outer loop
      vertex -7.5 0 0
      vertex -0.319334 0.67862 0
      vertex -0.40187 0.633246 0
    endloop
  endfacet
  facet normal 0 0 -1
    outer loop
      vertex -7.5 0 0
      vertex -0.40187 0.633246 0
      vertex -0.478068 0.577885 0
    endloop
  endfacet
  facet normal 0 0 -1
    outer loop
      vertex -7.5 0 0
      vertex -0.478068 0.577885 0
      vertex -0.546726 0.51341 0
    endloop
  endfacet
  facet normal 0 0 -1
    outer loop
      vertex -7.5 0 0
      vertex -0.546726 0.51341 0
      vertex -0.606763 0.440839 0
    endloop
  endfacet
  facet normal 0 0 -1
    outer loop
      vertex -7.5 0 0
      vertex -0.606763 0.440839 0
      vertex -0.65723 0.361315 0
    endloop
  endfacet
  facet normal 0 0 -1
    outer loop
      vertex -7.5 0 0
      vertex -0.65723 0.361315 0
      vertex -0.697332 0.276093 0
    endloop
  endfacet
  facet normal 0 0 -1
    outer loop
      vertex -7.5 0 0
      vertex -0.697332 0.276093 0
      vertex -0.726437 0.186517 0
    endloop
  endfacet
  facet normal 0 0 -1
    outer loop
      vertex -7.5 0 0
      vertex -0.726437 0.186517 0
      vertex -0.744086 0.094 0
    endloop
  endfacet
  facet normal 0 0 -1
    outer loop
      vertex -7.5 0 0
      vertex -0.744086 0.094 0
      vertex -0.75 0 0
    endloop
  endfacet
  facet normal 0 0 -1
    outer loop
      vertex 0.606763 -0.440839 0
      vertex 7.44086 -0.939999 0
      vertex 0.546726 -0.51341 0
    endloop
  endfacet
  facet normal 0 0 -1
    outer loop
      vertex -7.5 0 0
      vertex -0.606763 -0.440839 0
      vertex -0.546726 -0.51341 0
    endloop
  endfacet
  facet normal 0 0 -1
    outer loop
      vertex -7.5 0 0
      vertex -0.546726 -0.51341 0
      vertex -0.478068 -0.577885 0
    endloop
  endfacet
  facet normal 0 0 -1
    outer loop
      vertex -7.5 0 0
      vertex -0.478068 -0.577885 0
      vertex -0.40187 -0.633246 0
    endloop
  endfacet
  facet normal 0 0 -1
    outer loop
      vertex -7.5 0 0
      vertex -0.40187 -0.633246 0
      vertex -0.319334 -0.67862 0
    endloop
  endfacet
  facet normal 0 0 -1
    outer loop
      vertex -7.5 0 0
      vertex -0.319334 -0.67862 0
      vertex -0.231763 -0.713292 0
    endloop
  endfacet
  facet normal 0 0 -1
    outer loop
      vertex -7.5 0 0
      vertex -0.231763 -0.713292 0
      vertex -0.140536 -0.736715 0
    endloop
  endfacet
  facet normal 0 0 -1
    outer loop
      vertex -7.5 0 0
      vertex -0.140536 -0.736715 0
      vertex 7.26437 -1.86517 0
    endloop
  endfacet
  facet normal 0 0 -1
    outer loop
      vertex -7.5 0 0
      vertex 7.26437 -1.86517 0
      vertex 6.97332 -2.76093 0
    endloop
  endfacet
  facet normal 0 0 -1
    outer loop
      vertex -7.5 0 0
      vertex 6.97332 -2.76093 0
      vertex 6.5723 -3.61315 0
    endloop
  endfacet
  facet normal 0 0 -1
    outer loop
      vertex -7.5 0 0
      vertex 6.5723 -3.61315 0
      vertex 6.06763 -4.40839 0
    endloop
  endfacet
  facet normal 0 0 -1
    outer loop
      vertex -7.5 0 0
      vertex 6.06763 -4.40839 0
      vertex 5.46726 -5.1341 0
    endloop
  endfacet
  facet normal 0 0 -1
    outer loop
      vertex -7.5 0 0
      vertex 5.46726 -5.1341 0
      vertex -7.44086 -0.939999 0
    endloop
  endfacet
  facet normal 0 1 0
    outer loop
      vertex -10 10 0
      vertex -10 10 1.5
      vertex 10 10 0
    endloop
  endfacet
  facet normal 0 1 0
    outer loop
      vertex 10 10 0
      vertex -10 10 1.5
      vertex 10 10 1.5
    endloop
  endfacet
  facet normal 0 0 1
    outer loop
      vertex -7.44086 -0.939999 1.5
      vertex -7.26437 -1.86517 1.5
      vertex -7.5 0 1.5
    endloop
  endfacet
  facet normal 0 0 1
    outer loop
      vertex -10 10 1.5
      vertex -10 0 1.5
      vertex -7.5 0 1.5
    endloop
  endfacet
  facet normal 0 0 1
    outer loop
      vertex 7.5 0 1.5
      vertex 10 0 1.5
      vertex -10 10 1.5
    endloop
  endfacet
  facet normal 0 0 1
    outer loop
      vertex -6.5723 -3.61315 1.5
      vertex -10 10 1.5
      vertex -7.5 0 1.5
    endloop
  endfacet
  facet normal 0 0 1
    outer loop
      vertex -7.26437 -1.86517 1.5
      vertex -6.97332 -2.76093 1.5
      vertex -7.5 0 1.5
    endloop
  endfacet
  facet normal 0 0 1
    outer loop
      vertex -6.97332 -2.76093 1.5
      vertex -6.5723 -3.61315 1.5
      vertex -7.5 0 1.5
    endloop
  endfacet
  facet normal 0 0 1
    outer loop
      vertex -6.5723 -3.61315 1.5
      vertex -6.06763 -4.40839 1.5
      vertex -10 10 1.5
    endloop
  endfacet
  facet normal 0 0 1
    outer loop
      vertex -6.06763 -4.40839 1.5
      vertex -5.46726 -5.1341 1.5
      vertex -10 10 1.5
    endloop
  endfacet
  facet normal 0 0 1
    outer loop
      vertex -5.46726 -5.1341 1.5
      vertex -4.78068 -5.77885 1.5
      vertex -10 10 1.5
    endloop
  endfacet
  facet normal 0 0 1
    outer loop
      vertex -4.78068 -5.77885 1.5
      vertex -4.0187 -6.33246 1.5
      vertex -10 10 1.5
    endloop
  endfacet
  facet normal 0 0 1
    outer loop
      vertex -4.0187 -6.33246 1.5
      vertex -3.19334 -6.7862 1.5
      vertex -10 10 1.5
    endloop
  endfacet
  facet normal 0 0 1
    outer loop
      vertex -3.19334 -6.7862 1.5
      vertex -2.31763 -7.13292 1.5
      vertex -10 10 1.5
    endloop
  endfacet
  facet normal 0 0 1
    outer loop
      vertex -2.31763 -7.13292 1.5
      vertex -1.40536 -7.36715 1.5
      vertex -10 10 1.5
    endloop
  endfacet
  facet normal 0 0 1
    outer loop
      vertex -1.40536 -7.36715 1.5
      vertex -0.470929 -7.4852 1.5
      vertex -10 10 1.5
    endloop
  endfacet
  facet normal 0 0 1
    outer loop
      vertex -0.470929 -7.4852 1.5
      vertex 0.470929 -7.4852 1.5
      vertex -10 10 1.5
    endloop
  endfacet
  facet normal 0 0 1
    outer loop
      vertex 0.470929 -7.4852 1.5
      vertex 1.40536 -7.36715 1.5
      vertex -10 10 1.5
    endloop
  endfacet
  facet normal 0 0 1
    outer loop
      vertex 1.40536 -7.36715 1.5
      vertex 2.31763 -7.13292 1.5
      vertex -10 10 1.5
    endloop
  endfacet
  facet normal 0 0 1
    outer loop
      vertex 2.31763 -7.13292 1.5
      vertex 3.19334 -6.7862 1.5
      vertex -10 10 1.5
    endloop
  endfacet
  facet normal 0 0 1
    outer loop
      vertex 3.19334 -6.7862 1.5
      vertex 4.0187 -6.33246 1.5
      vertex -10 10 1.5
    endloop
  endfacet
  facet normal 0 0 1
    outer loop
      vertex 0.546726 0.51341 1.5
      vertex 0.606763 0.440839 1.5
      vertex 6.06763 -4.40839 1.5
    endloop
  endfacet
  facet normal 0 0 1
    outer loop
      vertex 0.478068 0.577885 1.5
      vertex 6.06763 -4.40839 1.5
      vertex -10 10 1.5
    endloop
  endfacet
  facet normal 0 0 1
    outer loop
      vertex 6.06763 -4.40839 1.5
      vertex 6.5723 -3.61315 1.5
      vertex -10 10 1.5
    endloop
  endfacet
  facet normal 0 0 1
    outer loop
      vertex 6.5723 -3.61315 1.5
      vertex 6.97332 -2.76093 1.5
      vertex -10 10 1.5
    endloop
  endfacet
  facet normal 0 0 1
    outer loop
      vertex 6.97332 -2.76093 1.5
      vertex 7.26437 -1.86517 1.5
      vertex -10 10 1.5
    endloop
  endfacet
  facet normal 0 0 1
    outer loop
      vertex 7.26437 -1.86517 1.5
      vertex 7.44086 -0.939999 1.5
      vertex -10 10 1.5
    endloop
  endfacet
  facet normal 0 0 1
    outer loop
      vertex 7.44086 -0.939999 1.5
      vertex 7.5 0 1.5
      vertex -10 10 1.5
    endloop
  endfacet
  facet normal 0 0 1
    outer loop
      vertex 10 0 1.5
      vertex 10 10 1.5
      vertex -10 10 1.5
    endloop
  endfacet
  facet normal 0 0 1
    outer loop
      vertex -0.726437 -0.186517 1.5
      vertex -0.744086 -0.094 1.5
      vertex -10 10 1.5
    endloop
  endfacet
  facet normal 0 0 1
    outer loop
      vertex -0.744086 -0.094 1.5
      vertex -0.75 0 1.5
      vertex -10 10 1.5
    endloop
  endfacet
  facet normal 0 0 1
    outer loop
      vertex -0.75 0 1.5
      vertex -0.744086 0.094 1.5
      vertex -10 10 1.5
    endloop
  endfacet
  facet normal 0 0 1
    outer loop
      vertex -0.726437 0.186517 1.5
      vertex -0.697332 0.276093 1.5
      vertex -10 10 1.5
    endloop
  endfacet
  facet normal 0 0 1
    outer loop
      vertex -0.697332 0.276093 1.5
      vertex -0.65723 0.361315 1.5
      vertex -10 10 1.5
    endloop
  endfacet
  facet normal 0 0 1
    outer loop
      vertex -0.65723 0.361315 1.5
      vertex -0.606763 0.440839 1.5
      vertex -10 10 1.5
    endloop
  endfacet
  facet normal 0 0 1
    outer loop
      vertex -0.606763 0.440839 1.5
      vertex -0.546726 0.51341 1.5
      vertex -10 10 1.5
    endloop
  endfacet
  facet normal 0 0 1
    outer loop
      vertex -0.546726 0.51341 1.5
      vertex -0.478068 0.577885 1.5
      vertex -10 10 1.5
    endloop
  endfacet
  facet normal 0 0 1
    outer loop
      vertex 0.546726 -0.51341 1.5
      vertex 0.478068 -0.577885 1.5
      vertex 5.46726 -5.1341 1.5
    endloop
  endfacet
  facet normal 0 0 1
    outer loop
      vertex -0.40187 0.633246 1.5
      vertex -0.319334 0.67862 1.5
      vertex -10 10 1.5
    endloop
  endfacet
  facet normal 0 0 1
    outer loop
      vertex -0.319334 0.67862 1.5
      vertex -0.231763 0.713292 1.5
      vertex -10 10 1.5
    endloop
  endfacet
  facet normal 0 0 1
    outer loop
      vertex -0.231763 0.713292 1.5
      vertex -0.140536 0.736715 1.5
      vertex -10 10 1.5
    endloop
  endfacet
  facet normal 0 0 1
    outer loop
      vertex 0.744086 -0.094 1.5
      vertex 0.726437 -0.186517 1.5
      vertex 6.06763 -4.40839 1.5
    endloop
  endfacet
  facet normal 0 0 1
    outer loop
      vertex -0.140536 0.736715 1.5
      vertex -0.047093 0.74852 1.5
      vertex -10 10 1.5
    endloop
  endfacet
  facet normal 0 0 1
    outer loop
      vertex -0.047093 0.74852 1.5
      vertex 0.047093 0.74852 1.5
      vertex -10 10 1.5
    endloop
  endfacet
  facet normal 0 0 1
    outer loop
      vertex 0.047093 0.74852 1.5
      vertex 0.140536 0.736715 1.5
      vertex -10 10 1.5
    endloop
  endfacet
  facet normal 0 0 1
    outer loop
      vertex 0.140536 0.736715 1.5
      vertex 0.231763 0.713292 1.5
      vertex -10 10 1.5
    endloop
  endfacet
  facet normal 0 0 1
    outer loop
      vertex 0.231763 0.713292 1.5
      vertex 0.319334 0.67862 1.5
      vertex -10 10 1.5
    endloop
  endfacet
  facet normal 0 0 1
    outer loop
      vertex 0.319334 0.67862 1.5
      vertex 0.40187 0.633246 1.5
      vertex -10 10 1.5
    endloop
  endfacet
  facet normal 0 0 1
    outer loop
      vertex 0.40187 0.633246 1.5
      vertex 0.478068 0.577885 1.5
      vertex -10 10 1.5
    endloop
  endfacet
  facet normal 0 0 1
    outer loop
      vertex 0.546726 0.51341 1.5
      vertex 6.06763 -4.40839 1.5
      vertex 0.478068 0.577885 1.5
    endloop
  endfacet
  facet normal 0 0 1
    outer loop
      vertex 0.606763 0.440839 1.5
      vertex 0.65723 0.361315 1.5
      vertex 6.06763 -4.40839 1.5
    endloop
  endfacet
  facet normal 0 0 1
    outer loop
      vertex 0.65723 0.361315 1.5
      vertex 0.697332 0.276093 1.5
      vertex 6.06763 -4.40839 1.5
    endloop
  endfacet
  facet normal 0 0 1
    outer loop
      vertex 0.697332 0.276093 1.5
      vertex 0.726437 0.186517 1.5
      vertex 6.06763 -4.40839 1.5
    endloop
  endfacet
  facet normal 0 0 1
    outer loop
      vertex 0.726437 0.186517 1.5
      vertex 0.744086 0.094 1.5
      vertex 6.06763 -4.40839 1.5
    endloop
  endfacet
  facet normal 0 0 1
    outer loop
      vertex 0.744086 0.094 1.5
      vertex 0.75 0 1.5
      vertex 6.06763 -4.40839 1.5
    endloop
  endfacet
  facet normal 0 0 1
    outer loop
      vertex 0.606763 -0.440839 1.5
      vertex 0.546726 -0.51341 1.5
      vertex 5.46726 -5.1341 1.5
    endloop
  endfacet
  facet normal 0 0 1
    outer loop
      vertex 0.726437 -0.186517 1.5
      vertex 0.697332 -0.276093 1.5
      vertex 6.06763 -4.40839 1.5
    endloop
  endfacet
  facet normal 0 0 1
    outer loop
      vertex 0.65723 -0.361315 1.5
      vertex 0.606763 -0.440839 1.5
      vertex 5.46726 -5.1341 1.5
    endloop
  endfacet
  facet normal 0 0 1
    outer loop
      vertex 5.46726 -5.1341 1.5
      vertex 6.06763 -4.40839 1.5
      vertex 0.697332 -0.276093 1.5
    endloop
  endfacet
  facet normal 0 0 1
    outer loop
      vertex 5.46726 -5.1341 1.5
      vertex 0.697332 -0.276093 1.5
      vertex 0.65723 -0.361315 1.5
    endloop
  endfacet
  facet normal 0 0 1
    outer loop
      vertex 0.75 0 1.5
      vertex 0.744086 -0.094 1.5
      vertex 6.06763 -4.40839 1.5
    endloop
  endfacet
  facet normal 0 0 1
    outer loop
      vertex 0.140536 -0.736715 1.5
      vertex 0.047093 -0.74852 1.5
      vertex 4.78068 -5.77885 1.5
    endloop
  endfacet
  facet normal 0 0 1
    outer loop
      vertex 0.478068 -0.577885 1.5
      vertex 0.40187 -0.633246 1.5
      vertex 5.46726 -5.1341 1.5
    endloop
  endfacet
  facet normal 0 0 1
    outer loop
      vertex 0.40187 -0.633246 1.5
      vertex 0.319334 -0.67862 1.5
      vertex 5.46726 -5.1341 1.5
    endloop
  endfacet
  facet normal 0 0 1
    outer loop
      vertex 0.319334 -0.67862 1.5
      vertex 0.231763 -0.713292 1.5
      vertex 5.46726 -5.1341 1.5
    endloop
  endfacet
  facet normal 0 0 1
    outer loop
      vertex 4.78068 -5.77885 1.5
      vertex 5.46726 -5.1341 1.5
      vertex 0.231763 -0.713292 1.5
    endloop
  endfacet
  facet normal 0 0 1
    outer loop
      vertex 4.78068 -5.77885 1.5
      vertex 0.231763 -0.713292 1.5
      vertex 0.140536 -0.736715 1.5
    endloop
  endfacet
  facet normal 0 0 1
    outer loop
      vertex -0.047093 -0.74852 1.5
      vertex -0.140536 -0.736715 1.5
      vertex 4.78068 -5.77885 1.5
    endloop
  endfacet
  facet normal 0 0 1
    outer loop
      vertex -0.231763 -0.713292 1.5
      vertex -0.319334 -0.67862 1.5
      vertex 4.0187 -6.33246 1.5
    endloop
  endfacet
  facet normal 0 0 1
    outer loop
      vertex 4.0187 -6.33246 1.5
      vertex 4.78068 -5.77885 1.5
      vertex -0.140536 -0.736715 1.5
    endloop
  endfacet
  facet normal 0 0 1
    outer loop
      vertex -0.606763 -0.440839 1.5
      vertex -0.65723 -0.361315 1.5
      vertex -10 10 1.5
    endloop
  endfacet
  facet normal 0 0 1
    outer loop
      vertex 4.0187 -6.33246 1.5
      vertex -0.140536 -0.736715 1.5
      vertex -0.231763 -0.713292 1.5
    endloop
  endfacet
  facet normal 0 0 1
    outer loop
      vertex -0.697332 -0.276093 1.5
      vertex -0.726437 -0.186517 1.5
      vertex -10 10 1.5
    endloop
  endfacet
  facet normal 0 0 1
    outer loop
      vertex 4.0187 -6.33246 1.5
      vertex -0.319334 -0.67862 1.5
      vertex -0.40187 -0.633246 1.5
    endloop
  endfacet
  facet normal 0 0 1
    outer loop
      vertex -0.65723 -0.361315 1.5
      vertex -0.697332 -0.276093 1.5
      vertex -10 10 1.5
    endloop
  endfacet
  facet normal 0 0 1
    outer loop
      vertex 4.0187 -6.33246 1.5
      vertex -0.40187 -0.633246 1.5
      vertex -0.478068 -0.577885 1.5
    endloop
  endfacet
  facet normal 0 0 1
    outer loop
      vertex 4.0187 -6.33246 1.5
      vertex -0.546726 -0.51341 1.5
      vertex -10 10 1.5
    endloop
  endfacet
  facet normal 0 0 1
    outer loop
      vertex 4.0187 -6.33246 1.5
      vertex -0.478068 -0.577885 1.5
      vertex -0.546726 -0.51341 1.5
    endloop
  endfacet
  facet normal 0 0 1
    outer loop
      vertex -0.546726 -0.51341 1.5
      vertex -0.606763 -0.440839 1.5
      vertex -10 10 1.5
    endloop
  endfacet
  facet normal 0 0 1
    outer loop
      vertex 0.047093 -0.74852 1.5
      vertex -0.047093 -0.74852 1.5
      vertex 4.78068 -5.77885 1.5
    endloop
  endfacet
  facet normal 0 0 1
    outer loop
      vertex -0.744086 0.094 1.5
      vertex -0.726437 0.186517 1.5
      vertex -10 10 1.5
    endloop
  endfacet
  facet normal 0 0 1
    outer loop
      vertex -0.478068 0.577885 1.5
      vertex -0.40187 0.633246 1.5
      vertex -10 10 1.5
    endloop
  endfacet
  facet normal -0.998027 -0.0627908 0
    outer loop
      vertex -7.5 0 0
      vertex -7.44086 -0.939999 0
      vertex -7.5 0 1.5
    endloop
  endfacet
  facet normal -0.998027 -0.0627908 0
    outer loop
      vertex -7.5 0 1.5
      vertex -7.44086 -0.939999 0
      vertex -7.44086 -0.939999 1.5
    endloop
  endfacet
  facet normal -0.982287 -0.187381 0
    outer loop
      vertex -7.44086 -0.939999 0
      vertex -7.26437 -1.86517 0
      vertex -7.44086 -0.939999 1.5
    endloop
  endfacet
  facet normal -0.982287 -0.187381 0
    outer loop
      vertex -7.44086 -0.939999 1.5
      vertex -7.26437 -1.86517 0
      vertex -7.26437 -1.86517 1.5
    endloop
  endfacet
  facet normal -0.951057 -0.309017 0
    outer loop
      vertex -7.26437 -1.86517 0
      vertex -6.97332 -2.76093 0
      vertex -7.26437 -1.86517 1.5
    endloop
  endfacet
  facet normal -0.951057 -0.309017 0
    outer loop
      vertex -7.26437 -1.86517 1.5
      vertex -6.97332 -2.76093 0
      vertex -6.97332 -2.76093 1.5
    endloop
  endfacet
  facet normal -0.904827 -0.425779 0
    outer loop
      vertex -6.97332 -2.76093 0
      vertex -6.5723 -3.61315 0
      vertex -6.97332 -2.76093 1.5
    endloop
  endfacet
  facet normal -0.904827 -0.425779 0
    outer loop
      vertex -6.97332 -2.76093 1.5
      vertex -6.5723 -3.61315 0
      vertex -6.5723 -3.61315 1.5
    endloop
  endfacet
  facet normal -0.844327 -0.535827 0
    outer loop
      vertex -6.5723 -3.61315 0
      vertex -6.06763 -4.40839 0
      vertex -6.5723 -3.61315 1.5
    endloop
  endfacet
  facet normal -0.844327 -0.535827 0
    outer loop
      vertex -6.5723 -3.61315 1.5
      vertex -6.06763 -4.40839 0
      vertex -6.06763 -4.40839 1.5
    endloop
  endfacet
  facet normal -0.770514 -0.637423 0
    outer loop
      vertex -6.06763 -4.40839 0
      vertex -5.46726 -5.1341 0
      vertex -6.06763 -4.40839 1.5
    endloop
  endfacet
  facet normal -0.770514 -0.637423 0
    outer loop
      vertex -6.06763 -4.40839 1.5
      vertex -5.46726 -5.1341 0
      vertex -5.46726 -5.1341 1.5
    endloop
  endfacet
  facet normal -0.684547 -0.728969 0
    outer loop
      vertex -5.46726 -5.1341 1.5
      vertex -5.46726 -5.1341 0
      vertex -4.78068 -5.77885 0
    endloop
  endfacet
  facet normal -0.684547 -0.728969 0
    outer loop
      vertex -4.78068 -5.77885 1.5
      vertex -5.46726 -5.1341 1.5
      vertex -4.78068 -5.77885 0
    endloop
  endfacet
  facet normal -0.587785 -0.809017 0
    outer loop
      vertex -4.78068 -5.77885 1.5
      vertex -4.78068 -5.77885 0
      vertex -4.0187 -6.33246 0
    endloop
  endfacet
  facet normal -0.587785 -0.809017 0
    outer loop
      vertex -4.0187 -6.33246 1.5
      vertex -4.78068 -5.77885 1.5
      vertex -4.0187 -6.33246 0
    endloop
  endfacet
  facet normal -0.481754 -0.876306 0
    outer loop
      vertex -4.0187 -6.33246 1.5
      vertex -4.0187 -6.33246 0
      vertex -3.19334 -6.7862 0
    endloop
  endfacet
  facet normal -0.481754 -0.876306 0
    outer loop
      vertex -3.19334 -6.7862 1.5
      vertex -4.0187 -6.33246 1.5
      vertex -3.19334 -6.7862 0
    endloop
  endfacet
  facet normal -0.368124 -0.929777 0
    outer loop
      vertex -3.19334 -6.7862 1.5
      vertex -3.19334 -6.7862 0
      vertex -2.31763 -7.13292 0
    endloop
  endfacet
  facet normal -0.368124 -0.929777 0
    outer loop
      vertex -2.31763 -7.13292 1.5
      vertex -3.19334 -6.7862 1.5
      vertex -2.31763 -7.13292 0
    endloop
  endfacet
  facet normal -0.24869 -0.968583 0
    outer loop
      vertex -2.31763 -7.13292 1.5
      vertex -2.31763 -7.13292 0
      vertex -1.40536 -7.36715 0
    endloop
  endfacet
  facet normal -0.24869 -0.968583 0
    outer loop
      vertex -1.40536 -7.36715 1.5
      vertex -2.31763 -7.13292 1.5
      vertex -1.40536 -7.36715 0
    endloop
  endfacet
  facet normal -0.125333 -0.992115 0
    outer loop
      vertex -1.40536 -7.36715 1.5
      vertex -1.40536 -7.36715 0
      vertex -0.470929 -7.4852 0
    endloop
  endfacet
  facet normal -0.125333 -0.992115 0
    outer loop
      vertex -0.470929 -7.4852 1.5
      vertex -1.40536 -7.36715 1.5
      vertex -0.470929 -7.4852 0
    endloop
  endfacet
  facet normal 0 -1 0
    outer loop
      vertex -0.470929 -7.4852 1.5
      vertex -0.470929 -7.4852 0
      vertex 0.470929 -7.4852 0
    endloop
  endfacet
  facet normal 0 -1 0
    outer loop
      vertex 0.470929 -7.4852 1.5
      vertex -0.470929 -7.4852 1.5
      vertex 0.470929 -7.4852 0
    endloop
  endfacet
  facet normal 0.125333 -0.992115 0
    outer loop
      vertex 0.470929 -7.4852 1.5
      vertex 0.470929 -7.4852 0
      vertex 1.40536 -7.36715 0
    endloop
  endfacet
  facet normal 0.125333 -0.992115 0
    outer loop
      vertex 1.40536 -7.36715 1.5
      vertex 0.470929 -7.4852 1.5
      vertex 1.40536 -7.36715 0
    endloop
  endfacet
  facet normal 0.24869 -0.968583 0
    outer loop
      vertex 1.40536 -7.36715 1.5
      vertex 1.40536 -7.36715 0
      vertex 2.31763 -7.13292 0
    endloop
  endfacet
  facet normal 0.24869 -0.968583 0
    outer loop
      vertex 2.31763 -7.13292 1.5
      vertex 1.40536 -7.36715 1.5
      vertex 2.31763 -7.13292 0
    endloop
  endfacet
  facet normal 0.368124 -0.929777 0
    outer loop
      vertex 2.31763 -7.13292 1.5
      vertex 2.31763 -7.13292 0
      vertex 3.19334 -6.7862 0
    endloop
  endfacet
  facet normal 0.368124 -0.929777 0
    outer loop
      vertex 3.19334 -6.7862 1.5
      vertex 2.31763 -7.13292 1.5
      vertex 3.19334 -6.7862 0
    endloop
  endfacet
  facet normal 0.481754 -0.876306 0
    outer loop
      vertex 3.19334 -6.7862 1.5
      vertex 3.19334 -6.7862 0
      vertex 4.0187 -6.33246 0
    endloop
  endfacet
  facet normal 0.481754 -0.876306 0
    outer loop
      vertex 4.0187 -6.33246 1.5
      vertex 3.19334 -6.7862 1.5
      vertex 4.0187 -6.33246 0
    endloop
  endfacet
  facet normal 0.587785 -0.809017 0
    outer loop
      vertex 4.0187 -6.33246 1.5
      vertex 4.0187 -6.33246 0
      vertex 4.78068 -5.77885 0
    endloop
  endfacet
  facet normal 0.587785 -0.809017 0
    outer loop
      vertex 4.78068 -5.77885 1.5
      vertex 4.0187 -6.33246 1.5
      vertex 4.78068 -5.77885 0
    endloop
  endfacet
  facet normal 0.684547 -0.728969 0
    outer loop
      vertex 4.78068 -5.77885 1.5
      vertex 4.78068 -5.77885 0
      vertex 5.46726 -5.1341 0
    endloop
  endfacet
  facet normal 0.684547 -0.728969 0
    outer loop
      vertex 5.46726 -5.1341 1.5
      vertex 4.78068 -5.77885 1.5
      vertex 5.46726 -5.1341 0
    endloop
  endfacet
  facet normal 0.770514 -0.637423 0
    outer loop
      vertex 5.46726 -5.1341 1.5
      vertex 5.46726 -5.1341 0
      vertex 6.06763 -4.40839 0
    endloop
  endfacet
  facet normal 0.770514 -0.637423 0
    outer loop
      vertex 6.06763 -4.40839 1.5
      vertex 5.46726 -5.1341 1.5
      vertex 6.06763 -4.40839 0
    endloop
  endfacet
  facet normal 0.844327 -0.535827 0
    outer loop
      vertex 6.06763 -4.40839 1.5
      vertex 6.06763 -4.40839 0
      vertex 6.5723 -3.61315 0
    endloop
  endfacet
  facet normal 0.844327 -0.535827 0
    outer loop
      vertex 6.5723 -3.61315 1.5
      vertex 6.06763 -4.40839 1.5
      vertex 6.5723 -3.61315 0
    endloop
  endfacet
  facet normal 0.904827 -0.425779 0
    outer loop
      vertex 6.5723 -3.61315 1.5
      vertex 6.5723 -3.61315 0
      vertex 6.97332 -2.76093 0
    endloop
  endfacet
  facet normal 0.904827 -0.425779 0
    outer loop
      vertex 6.97332 -2.76093 1.5
      vertex 6.5723 -3.61315 1.5
      vertex 6.97332 -2.76093 0
    endloop
  endfacet
  facet normal 0.951057 -0.309017 0
    outer loop
      vertex 6.97332 -2.76093 1.5
      vertex 6.97332 -2.76093 0
      vertex 7.26437 -1.86517 0
    endloop
  endfacet
  facet normal 0.951057 -0.309017 0
    outer loop
      vertex 7.26437 -1.86517 1.5
      vertex 6.97332 -2.76093 1.5
      vertex 7.26437 -1.86517 0
    endloop
  endfacet
  facet normal 0.982287 -0.187381 0
    outer loop
      vertex 7.26437 -1.86517 1.5
      vertex 7.26437 -1.86517 0
      vertex 7.44086 -0.939999 0
    endloop
  endfacet
  facet normal 0.982287 -0.187381 0
    outer loop
      vertex 7.44086 -0.939999 1.5
      vertex 7.26437 -1.86517 1.5
      vertex 7.44086 -0.939999 0
    endloop
  endfacet
  facet normal 0.998027 -0.0627908 0
    outer loop
      vertex 7.44086 -0.939999 1.5
      vertex 7.44086 -0.939999 0
      vertex 7.5 0 0
    endloop
  endfacet
  facet normal 0.998027 -0.0627908 0
    outer loop
      vertex 7.5 0 1.5
      vertex 7.44086 -0.939999 1.5
      vertex 7.5 0 0
    endloop
  endfacet
  facet normal 0 -1 0
    outer loop
      vertex 7.5 0 1.5
      vertex 7.5 0 0
      vertex 10 0 0
    endloop
  endfacet
  facet normal 0 -1 0
    outer loop
      vertex 10 0 1.5
      vertex 7.5 0 1.5
      vertex 10 0 0
    endloop
  endfacet
  facet normal 1 0 0
    outer loop
      vertex 10 0 1.5
      vertex 10 0 0
      vertex 10 10 0
    endloop
  endfacet
  facet normal 1 0 0
    outer loop
      vertex 10 10 1.5
      vertex 10 0 1.5
      vertex 10 10 0
    endloop
  endfacet
  facet normal 0.998027 0.0627907 0
    outer loop
      vertex -0.75 0 1.5
      vertex -0.744086 -0.094 1.5
      vertex -0.744086 -0.094 0
    endloop
  endfacet
  facet normal 0.998027 0.0627907 0
    outer loop
      vertex -0.75 0 0
      vertex -0.75 0 1.5
      vertex -0.744086 -0.094 0
    endloop
  endfacet
  facet normal 0.998027 -0.0627907 0
    outer loop
      vertex -0.744086 0.094 0
      vertex -0.744086 0.094 1.5
      vertex -0.75 0 1.5
    endloop
  endfacet
  facet normal 0.998027 -0.0627907 0
    outer loop
      vertex -0.75 0 0
      vertex -0.744086 0.094 0
      vertex -0.75 0 1.5
    endloop
  endfacet
  facet normal 0.982286 -0.187386 0
    outer loop
      vertex -0.726437 0.186517 0
      vertex -0.726437 0.186517 1.5
      vertex -0.744086 0.094 1.5
    endloop
  endfacet
  facet normal 0.982286 -0.187386 0
    outer loop
      vertex -0.744086 0.094 0
      vertex -0.726437 0.186517 0
      vertex -0.744086 0.094 1.5
    endloop
  endfacet
  facet normal 0.951057 -0.309017 0
    outer loop
      vertex -0.697332 0.276093 0
      vertex -0.697332 0.276093 1.5
      vertex -0.726437 0.186517 1.5
    endloop
  endfacet
  facet normal 0.951057 -0.309017 0
    outer loop
      vertex -0.726437 0.186517 0
      vertex -0.697332 0.276093 0
      vertex -0.726437 0.186517 1.5
    endloop
  endfacet
  facet normal 0.904829 -0.425776 0
    outer loop
      vertex -0.65723 0.361315 0
      vertex -0.65723 0.361315 1.5
      vertex -0.697332 0.276093 1.5
    endloop
  endfacet
  facet normal 0.904829 -0.425776 0
    outer loop
      vertex -0.697332 0.276093 0
      vertex -0.65723 0.361315 0
      vertex -0.697332 0.276093 1.5
    endloop
  endfacet
  facet normal 0.84433 -0.535823 0
    outer loop
      vertex -0.606763 0.440839 0
      vertex -0.606763 0.440839 1.5
      vertex -0.65723 0.361315 1.5
    endloop
  endfacet
  facet normal 0.84433 -0.535823 0
    outer loop
      vertex -0.65723 0.361315 0
      vertex -0.606763 0.440839 0
      vertex -0.65723 0.361315 1.5
    endloop
  endfacet
  facet normal 0.770508 -0.637431 0
    outer loop
      vertex -0.546726 0.51341 0
      vertex -0.546726 0.51341 1.5
      vertex -0.606763 0.440839 1.5
    endloop
  endfacet
  facet normal 0.770508 -0.637431 0
    outer loop
      vertex -0.606763 0.440839 0
      vertex -0.546726 0.51341 0
      vertex -0.606763 0.440839 1.5
    endloop
  endfacet
  facet normal 0.684552 -0.728964 0
    outer loop
      vertex -0.478068 0.577885 0
      vertex -0.478068 0.577885 1.5
      vertex -0.546726 0.51341 1.5
    endloop
  endfacet
  facet normal 0.684552 -0.728964 0
    outer loop
      vertex -0.546726 0.51341 0
      vertex -0.478068 0.577885 0
      vertex -0.546726 0.51341 1.5
    endloop
  endfacet
  facet normal 0.587785 -0.809017 0
    outer loop
      vertex -0.40187 0.633246 0
      vertex -0.40187 0.633246 1.5
      vertex -0.478068 0.577885 1.5
    endloop
  endfacet
  facet normal 0.587785 -0.809017 0
    outer loop
      vertex -0.478068 0.577885 0
      vertex -0.40187 0.633246 0
      vertex -0.478068 0.577885 1.5
    endloop
  endfacet
  facet normal 0.481749 -0.876309 0
    outer loop
      vertex -0.319334 0.67862 0
      vertex -0.319334 0.67862 1.5
      vertex -0.40187 0.633246 1.5
    endloop
  endfacet
  facet normal 0.481749 -0.876309 0
    outer loop
      vertex -0.40187 0.633246 0
      vertex -0.319334 0.67862 0
      vertex -0.40187 0.633246 1.5
    endloop
  endfacet
  facet normal 0.368126 -0.929776 0
    outer loop
      vertex -0.231763 0.713292 0
      vertex -0.231763 0.713292 1.5
      vertex -0.319334 0.67862 1.5
    endloop
  endfacet
  facet normal 0.368126 -0.929776 0
    outer loop
      vertex -0.319334 0.67862 0
      vertex -0.231763 0.713292 0
      vertex -0.319334 0.67862 1.5
    endloop
  endfacet
  facet normal 0.248689 -0.968583 0
    outer loop
      vertex -0.140536 0.736715 0
      vertex -0.140536 0.736715 1.5
      vertex -0.231763 0.713292 1.5
    endloop
  endfacet
  facet normal 0.248689 -0.968583 0
    outer loop
      vertex -0.231763 0.713292 0
      vertex -0.140536 0.736715 0
      vertex -0.231763 0.713292 1.5
    endloop
  endfacet
  facet normal 0.125337 -0.992114 0
    outer loop
      vertex -0.047093 0.74852 0
      vertex -0.047093 0.74852 1.5
      vertex -0.140536 0.736715 1.5
    endloop
  endfacet
  facet normal 0.125337 -0.992114 0
    outer loop
      vertex -0.140536 0.736715 0
      vertex -0.047093 0.74852 0
      vertex -0.140536 0.736715 1.5
    endloop
  endfacet
  facet normal 0 -1 0
    outer loop
      vertex 0.047093 0.74852 0
      vertex 0.047093 0.74852 1.5
      vertex -0.047093 0.74852 1.5
    endloop
  endfacet
  facet normal 0 -1 0
    outer loop
      vertex -0.047093 0.74852 0
      vertex 0.047093 0.74852 0
      vertex -0.047093 0.74852 1.5
    endloop
  endfacet
  facet normal -0.125337 -0.992114 0
    outer loop
      vertex 0.140536 0.736715 0
      vertex 0.140536 0.736715 1.5
      vertex 0.047093 0.74852 1.5
    endloop
  endfacet
  facet normal -0.125337 -0.992114 0
    outer loop
      vertex 0.047093 0.74852 0
      vertex 0.140536 0.736715 0
      vertex 0.047093 0.74852 1.5
    endloop
  endfacet
  facet normal -0.248689 -0.968583 0
    outer loop
      vertex 0.231763 0.713292 0
      vertex 0.231763 0.713292 1.5
      vertex 0.140536 0.736715 1.5
    endloop
  endfacet
  facet normal -0.248689 -0.968583 0
    outer loop
      vertex 0.140536 0.736715 0
      vertex 0.231763 0.713292 0
      vertex 0.140536 0.736715 1.5
    endloop
  endfacet
  facet normal -0.368126 -0.929776 0
    outer loop
      vertex 0.319334 0.67862 0
      vertex 0.319334 0.67862 1.5
      vertex 0.231763 0.713292 1.5
    endloop
  endfacet
  facet normal -0.368126 -0.929776 0
    outer loop
      vertex 0.231763 0.713292 0
      vertex 0.319334 0.67862 0
      vertex 0.231763 0.713292 1.5
    endloop
  endfacet
  facet normal -0.481749 -0.876309 0
    outer loop
      vertex 0.40187 0.633246 0
      vertex 0.40187 0.633246 1.5
      vertex 0.319334 0.67862 1.5
    endloop
  endfacet
  facet normal -0.481749 -0.876309 0
    outer loop
      vertex 0.319334 0.67862 0
      vertex 0.40187 0.633246 0
      vertex 0.319334 0.67862 1.5
    endloop
  endfacet
  facet normal -0.587785 -0.809017 0
    outer loop
      vertex 0.478068 0.577885 0
      vertex 0.478068 0.577885 1.5
      vertex 0.40187 0.633246 1.5
    endloop
  endfacet
  facet normal -0.587785 -0.809017 0
    outer loop
      vertex 0.40187 0.633246 0
      vertex 0.478068 0.577885 0
      vertex 0.40187 0.633246 1.5
    endloop
  endfacet
  facet normal -0.684552 -0.728964 0
    outer loop
      vertex 0.546726 0.51341 0
      vertex 0.546726 0.51341 1.5
      vertex 0.478068 0.577885 1.5
    endloop
  endfacet
  facet normal -0.684552 -0.728964 0
    outer loop
      vertex 0.478068 0.577885 0
      vertex 0.546726 0.51341 0
      vertex 0.478068 0.577885 1.5
    endloop
  endfacet
  facet normal -0.770508 -0.637431 0
    outer loop
      vertex 0.606763 0.440839 1.5
      vertex 0.546726 0.51341 1.5
      vertex 0.606763 0.440839 0
    endloop
  endfacet
  facet normal -0.770508 -0.637431 0
    outer loop
      vertex 0.606763 0.440839 0
      vertex 0.546726 0.51341 1.5
      vertex 0.546726 0.51341 0
    endloop
  endfacet
  facet normal -0.84433 -0.535823 0
    outer loop
      vertex 0.65723 0.361315 1.5
      vertex 0.606763 0.440839 1.5
      vertex 0.65723 0.361315 0
    endloop
  endfacet
  facet normal -0.84433 -0.535823 0
    outer loop
      vertex 0.65723 0.361315 0
      vertex 0.606763 0.440839 1.5
      vertex 0.606763 0.440839 0
    endloop
  endfacet
  facet normal -0.904829 -0.425776 0
    outer loop
      vertex 0.697332 0.276093 1.5
      vertex 0.65723 0.361315 1.5
      vertex 0.697332 0.276093 0
    endloop
  endfacet
  facet normal -0.904829 -0.425776 0
    outer loop
      vertex 0.697332 0.276093 0
      vertex 0.65723 0.361315 1.5
      vertex 0.65723 0.361315 0
    endloop
  endfacet
  facet normal -0.951057 -0.309017 0
    outer loop
      vertex 0.726437 0.186517 1.5
      vertex 0.697332 0.276093 1.5
      vertex 0.726437 0.186517 0
    endloop
  endfacet
  facet normal -0.951057 -0.309017 0
    outer loop
      vertex 0.726437 0.186517 0
      vertex 0.697332 0.276093 1.5
      vertex 0.697332 0.276093 0
    endloop
  endfacet
  facet normal -0.982286 -0.187386 0
    outer loop
      vertex 0.744086 0.094 1.5
      vertex 0.726437 0.186517 1.5
      vertex 0.744086 0.094 0
    endloop
  endfacet
  facet normal -0.982286 -0.187386 0
    outer loop
      vertex 0.744086 0.094 0
      vertex 0.726437 0.186517 1.5
      vertex 0.726437 0.186517 0
    endloop
  endfacet
  facet normal -0.998027 -0.0627907 0
    outer loop
      vertex 0.75 0 1.5
      vertex 0.744086 0.094 1.5
      vertex 0.75 0 0
    endloop
  endfacet
  facet normal -0.998027 -0.0627907 0
    outer loop
      vertex 0.75 0 0
      vertex 0.744086 0.094 1.5
      vertex 0.744086 0.094 0
    endloop
  endfacet
  facet normal -0.998027 0.0627907 0
    outer loop
      vertex 0.75 0 1.5
      vertex 0.75 0 0
      vertex 0.744086 -0.094 1.5
    endloop
  endfacet
  facet normal -0.998027 0.0627907 0
    outer loop
      vertex 0.744086 -0.094 1.5
      vertex 0.75 0 0
      vertex 0.744086 -0.094 0
    endloop
  endfacet
  facet normal -0.982286 0.187386 0
    outer loop
      vertex 0.744086 -0.094 1.5
      vertex 0.744086 -0.094 0
      vertex 0.726437 -0.186517 1.5
    endloop
  endfacet
  facet normal -0.982286 0.187386 0
    outer loop
      vertex 0.726437 -0.186517 1.5
      vertex 0.744086 -0.094 0
      vertex 0.726437 -0.186517 0
    endloop
  endfacet
  facet normal -0.951057 0.309017 0
    outer loop
      vertex 0.726437 -0.186517 1.5
      vertex 0.726437 -0.186517 0
      vertex 0.697332 -0.276093 1.5
    endloop
  endfacet
  facet normal -0.951057 0.309017 0
    outer loop
      vertex 0.697332 -0.276093 1.5
      vertex 0.726437 -0.186517 0
      vertex 0.697332 -0.276093 0
    endloop
  endfacet
  facet normal -0.904829 0.425776 0
    outer loop
      vertex 0.697332 -0.276093 1.5
      vertex 0.697332 -0.276093 0
      vertex 0.65723 -0.361315 1.5
    endloop
  endfacet
  facet normal -0.904829 0.425776 0
    outer loop
      vertex 0.65723 -0.361315 1.5
      vertex 0.697332 -0.276093 0
      vertex 0.65723 -0.361315 0
    endloop
  endfacet
  facet normal -0.84433 0.535823 0
    outer loop
      vertex 0.65723 -0.361315 1.5
      vertex 0.65723 -0.361315 0
      vertex 0.606763 -0.440839 1.5
    endloop
  endfacet
  facet normal -0.84433 0.535823 0
    outer loop
      vertex 0.606763 -0.440839 1.5
      vertex 0.65723 -0.361315 0
      vertex 0.606763 -0.440839 0
    endloop
  endfacet
  facet normal -0.770508 0.637431 0
    outer loop
      vertex 0.606763 -0.440839 1.5
      vertex 0.606763 -0.440839 0
      vertex 0.546726 -0.51341 1.5
    endloop
  endfacet
  facet normal -0.770508 0.637431 0
    outer loop
      vertex 0.546726 -0.51341 1.5
      vertex 0.606763 -0.440839 0
      vertex 0.546726 -0.51341 0
    endloop
  endfacet
  facet normal -0.684552 0.728964 0
    outer loop
      vertex 0.546726 -0.51341 1.5
      vertex 0.546726 -0.51341 0
      vertex 0.478068 -0.577885 1.5
    endloop
  endfacet
  facet normal -0.684552 0.728964 0
    outer loop
      vertex 0.478068 -0.577885 1.5
      vertex 0.546726 -0.51341 0
      vertex 0.478068 -0.577885 0
    endloop
  endfacet
  facet normal -0.587785 0.809017 0
    outer loop
      vertex 0.478068 -0.577885 1.5
      vertex 0.478068 -0.577885 0
      vertex 0.40187 -0.633246 1.5
    endloop
  endfacet
  facet normal -0.587785 0.809017 0
    outer loop
      vertex 0.40187 -0.633246 1.5
      vertex 0.478068 -0.577885 0
      vertex 0.40187 -0.633246 0
    endloop
  endfacet
  facet normal -0.481749 0.876309 0
    outer loop
      vertex 0.40187 -0.633246 1.5
      vertex 0.40187 -0.633246 0
      vertex 0.319334 -0.67862 1.5
    endloop
  endfacet
  facet normal -0.481749 0.876309 0
    outer loop
      vertex 0.319334 -0.67862 1.5
      vertex 0.40187 -0.633246 0
      vertex 0.319334 -0.67862 0
    endloop
  endfacet
  facet normal -0.368126 0.929776 0
    outer loop
      vertex 0.319334 -0.67862 1.5
      vertex 0.319334 -0.67862 0
      vertex 0.231763 -0.713292 1.5
    endloop
  endfacet
  facet normal -0.368126 0.929776 0
    outer loop
      vertex 0.231763 -0.713292 1.5
      vertex 0.319334 -0.67862 0
      vertex 0.231763 -0.713292 0
    endloop
  endfacet
  facet normal -0.248689 0.968583 0
    outer loop
      vertex 0.231763 -0.713292 1.5
      vertex 0.231763 -0.713292 0
      vertex 0.140536 -0.736715 1.5
    endloop
  endfacet
  facet normal -0.248689 0.968583 0
    outer loop
      vertex 0.140536 -0.736715 1.5
      vertex 0.231763 -0.713292 0
      vertex 0.140536 -0.736715 0
    endloop
  endfacet
  facet normal -0.125337 0.992114 0
    outer loop
      vertex 0.140536 -0.736715 1.5
      vertex 0.140536 -0.736715 0
      vertex 0.047093 -0.74852 1.5
    endloop
  endfacet
  facet normal -0.125337 0.992114 0
    outer loop
      vertex 0.047093 -0.74852 1.5
      vertex 0.140536 -0.736715 0
      vertex 0.047093 -0.74852 0
    endloop
  endfacet
  facet normal 0 1 0
    outer loop
      vertex 0.047093 -0.74852 1.5
      vertex 0.047093 -0.74852 0
      vertex -0.047093 -0.74852 1.5
    endloop
  endfacet
  facet normal 0 1 0
    outer loop
      vertex -0.047093 -0.74852 1.5
      vertex 0.047093 -0.74852 0
      vertex -0.047093 -0.74852 0
    endloop
  endfacet
  facet normal 0.125337 0.992114 0
    outer loop
      vertex -0.047093 -0.74852 1.5
      vertex -0.047093 -0.74852 0
      vertex -0.140536 -0.736715 1.5
    endloop
  endfacet
  facet normal 0.125337 0.992114 0
    outer loop
      vertex -0.140536 -0.736715 1.5
      vertex -0.047093 -0.74852 0
      vertex -0.140536 -0.736715 0
    endloop
  endfacet
  facet normal 0.248689 0.968583 0
    outer loop
      vertex -0.140536 -0.736715 1.5
      vertex -0.140536 -0.736715 0
      vertex -0.231763 -0.713292 1.5
    endloop
  endfacet
  facet normal 0.248689 0.968583 0
    outer loop
      vertex -0.231763 -0.713292 1.5
      vertex -0.140536 -0.736715 0
      vertex -0.231763 -0.713292 0
    endloop
  endfacet
  facet normal 0.368126 0.929776 0
    outer loop
      vertex -0.231763 -0.713292 1.5
      vertex -0.231763 -0.713292 0
      vertex -0.319334 -0.67862 1.5
    endloop
  endfacet
  facet normal 0.368126 0.929776 0
    outer loop
      vertex -0.319334 -0.67862 1.5
      vertex -0.231763 -0.713292 0
      vertex -0.319334 -0.67862 0
    endloop
  endfacet
  facet normal 0.481749 0.876309 0
    outer loop
      vertex -0.319334 -0.67862 1.5
      vertex -0.319334 -0.67862 0
      vertex -0.40187 -0.633246 1.5
    endloop
  endfacet
  facet normal 0.481749 0.876309 0
    outer loop
      vertex -0.40187 -0.633246 1.5
      vertex -0.319334 -0.67862 0
      vertex -0.40187 -0.633246 0
    endloop
  endfacet
  facet normal 0.587785 0.809017 0
    outer loop
      vertex -0.40187 -0.633246 1.5
      vertex -0.40187 -0.633246 0
      vertex -0.478068 -0.577885 1.5
    endloop
  endfacet
  facet normal 0.587785 0.809017 0
    outer loop
      vertex -0.478068 -0.577885 1.5
      vertex -0.40187 -0.633246 0
      vertex -0.478068 -0.577885 0
    endloop
  endfacet
  facet normal 0.684552 0.728964 0
    outer loop
      vertex -0.478068 -0.577885 1.5
      vertex -0.478068 -0.577885 0
      vertex -0.546726 -0.51341 1.5
    endloop
  endfacet
  facet normal 0.684552 0.728964 0
    outer loop
      vertex -0.546726 -0.51341 1.5
      vertex -0.478068 -0.577885 0
      vertex -0.546726 -0.51341 0
    endloop
  endfacet
  facet normal 0.770508 0.637431 0
    outer loop
      vertex -0.606763 -0.440839 1.5
      vertex -0.546726 -0.51341 1.5
      vertex -0.546726 -0.51341 0
    endloop
  endfacet
  facet normal 0.770508 0.637431 0
    outer loop
      vertex -0.606763 -0.440839 0
      vertex -0.606763 -0.440839 1.5
      vertex -0.546726 -0.51341 0
    endloop
  endfacet
  facet normal 0.84433 0.535823 0
    outer loop
      vertex -0.65723 -0.361315 1.5
      vertex -0.606763 -0.440839 1.5
      vertex -0.606763 -0.440839 0
    endloop
  endfacet
  facet normal 0.84433 0.535823 0
    outer loop
      vertex -0.65723 -0.361315 0
      vertex -0.65723 -0.361315 1.5
      vertex -0.606763 -0.440839 0
    endloop
  endfacet
  facet normal 0.904829 0.425776 0
    outer loop
      vertex -0.697332 -0.276093 1.5
      vertex -0.65723 -0.361315 1.5
      vertex -0.65723 -0.361315 0
    endloop
  endfacet
  facet normal 0.904829 0.425776 0
    outer loop
      vertex -0.697332 -0.276093 0
      vertex -0.697332 -0.276093 1.5
      vertex -0.65723 -0.361315 0
    endloop
  endfacet
  facet normal 0.951057 0.309017 0
    outer loop
      vertex -0.726437 -0.186517 1.5
      vertex -0.697332 -0.276093 1.5
      vertex -0.697332 -0.276093 0
    endloop
  endfacet
  facet normal 0.951057 0.309017 0
    outer loop
      vertex -0.726437 -0.186517 0
      vertex -0.726437 -0.186517 1.5
      vertex -0.697332 -0.276093 0
    endloop
  endfacet
  facet normal 0.982286 0.187386 0
    outer loop
      vertex -0.744086 -0.094 1.5
      vertex -0.726437 -0.186517 1.5
      vertex -0.726437 -0.186517 0
    endloop
  endfacet
  facet normal 0.982286 0.187386 0
    outer loop
      vertex -0.744086 -0.094 0
      vertex -0.744086 -0.094 1.5
      vertex -0.726437 -0.186517 0
    endloop
  endfacet
endsolid OpenSCAD_Model
